# AST/ASF file generated using VICON BodyLanguage
# -----------------------------------------------
:version 1.10
:name VICON
:units
  mass 1.0
  length 0.45
  angle deg
:documentation
   .ast/.asf automatically generated from VICON data using
   VICON BodyBuilder and BodyLanguage model FoxedUp or BRILLIANT.MOD
:root
   order TX TY TZ RX RY RZ
   axis XYZ
   position 0 0 0  
   orientation 0 0 0 
:bonedata
  begin
     id 1 
     name lhipjoint
     direction 0.543289 -0.788407 0.288535 
     length 2.57127 
     axis 0 0 0  XYZ
  end
  begin
     id 2 
     name lfemur
     direction 0.34202 -0.939693 0  
     length 8.47298  
     axis 0 0 20  XYZ
    dof rx ry rz
    limits (-160.0 20.0)
           (-70.0 70.0)
           (-60.0 70.0)
  end
  begin
     id 3 
     name ltibia
     direction 0.34202 -0.939693 0   
     length 8.13367   
     axis 0 0 20   XYZ
    dof rx
    limits (-10.0 170.0)
  end
  begin
     id 4 
     name lfoot
     direction 0.114037 -0.313314 0.942778   
     length 2.67113   
     axis -90 7.62852e-016 20   XYZ
    dof rx rz
    limits (-45.0 90.0)
           (-70.0 20.0)
  end
  begin
     id 5 
     name ltoes
     direction 1.536e-011 -4.21847e-011 1   
     length 1.32217   
     axis -90 7.62852e-016 20   XYZ
    dof rx
    limits (-90.0 20.0)
  end
  begin
     id 6 
     name rhipjoint
     direction -0.571293 -0.770752 0.282074   
     length 2.63017  
     axis 0 0 0  XYZ 
  end
  begin
     id 7 
     name rfemur
     direction -0.34202 -0.939693 0   
     length 8.60885   
     axis 0 0 -20   XYZ
    dof rx ry rz
    limits (-160.0 20.0)
           (-70.0 70.0)
           (-70.0 60.0)
  end
  begin
     id 8 
     name rtibia
     direction -0.34202 -0.939693 0   
     length 8.07673   
     axis 0 0 -20   XYZ
    dof rx
    limits (-10.0 170.0)
 end
 begin
     id 9 
     name rfoot
     direction -0.121336 -0.333368 0.934956   
     length 2.81602  
     axis -90 -7.62852e-016 -20   XYZ
    dof rx rz
    limits (-45.0 90.0)
           (-20.0 70.0)
  end
  begin
     id 10 
     name rtoes
     direction -1.53491e-011 -4.21808e-011 1   
     length 1.38905   
     axis -90 -7.62852e-016 -20   XYZ
    dof rx
    limits (-90.0 20.0)
  end
  begin
     id 11 
     name lowerback
     direction 0.0136776 0.999869 -0.00861835   
     length 2.14087   
     axis 0 0 0   XYZ
    dof rx ry rz
    limits (-20.0 45.0)
           (-30.0 30.0)
           (-30.0 30.0)
  end
  begin
     id 12 
     name upperback
     direction -0.00789158 0.999804 0.0181308   
     length 2.14151   
     axis 0 0 0   XYZ
    dof rx ry rz
    limits (-20.0 45.0)
           (-30.0 30.0)
           (-30.0 30.0)
  end
  begin
     id 13 
     name thorax
     direction -0.0135231 0.999666 0.0220247   
     length 2.13644   
     axis 0 0 0   XYZ
    dof rx ry rz
    limits (-20.0 45.0)
           (-30.0 30.0)
           (-30.0 30.0)
  end
  begin
     id 14 
     name lowerneck
     direction -0.0392259 0.997317 0.0618018   
     length 1.65045   
     axis 0 0 0   XYZ
    dof rx ry rz
    limits (-20.0 45.0)
           (-30.0 30.0)
           (-30.0 30.0)
  end
  begin
     id 15 
     name upperneck
     direction 0.0765547 0.994276 -0.0745319   
     length 1.66045   
     axis 0 0 0   XYZ
    dof rx ry rz
    limits (-20.0 45.0)
           (-30.0 30.0)
           (-30.0 30.0)
  end
  begin
     id 16
     name head
     direction 0.0241564 0.999031 -0.036785  
     length 1.66594  
     axis 0 0 0   XYZ
    dof rx ry rz
    limits (-20.0 45.0)
           (-30.0 30.0)
           (-30.0 30.0)
  end
  begin
     id 17 
     name lclavicle
     direction 0.967398 0.249018 0.0461573  
     length 3.75176  
     axis 0 0 0   XYZ
    dof ry rz
    limits (-20.0 10.0)
           (0.0 20.0)
  end
  begin
     id 18 
     name lhumerus
     direction 1 -4.48963e-011 -3.05005e-027   
     length 5.93342   
     axis 180 -30 -90   XYZ
    dof rx ry rz
    limits (-60.0 90.0)
           (-90.0 90.0)
           (-90.0 90.0)
  end
  begin
     id 19
     name lradius
     direction 1 -4.48957e-011 1.07006e-026   
     length 3.94763   
     axis 180 -30 -90   XYZ
    dof rx
    limits (-10.0 170.0)
  end
  begin
     id 20
     name lwrist
     direction 1 -4.48978e-011 1.92422e-026   
     length 1.97382   
     axis -1.18182e-014 90 90   XYZ
    dof ry
    limits (-180.0 0.0)
 end
  begin
     id 21 
     name lhand
     direction 1 -4.48931e-011 3.84844e-026   
     length 0.560187   
     axis -2.45563e-014 90 90   XYZ
    dof rx rz
    limits (-90.0 90.0)
           (-45.0 45.0)
  end
  begin
     id 22 
     name lfingers
     direction 1 -4.48952e-011 7.69687e-026   
     length 0.451637   
     axis -4.91126e-014 90 90   XYZ
    dof rx
    limits (0.0 90.0)
  end
  begin
     id 23
     name lthumb
     direction 0.707107 -6.34901e-011 0.707107   
     length 0.648463   
     axis -90 45 2.85299e-015   XYZ
    dof rx rz
    limits (-45.0 45.0)
           (-45.0 45.0)
  end
  begin
     id 24 
     name rclavicle
     direction -0.965946 0.258716 0.00371831   
     length 3.63667  
     axis 0 0 0   XYZ 
    dof ry rz
    limits (-10.0 20.0)
           (-20.0 0.0)
  end
  begin
     id 25 
     name rhumerus
     direction -1 -4.48966e-011 -1.78361e-028  
     length 6.28647   
     axis 180 30 90   XYZ
    dof rx ry rz
    limits (-90.0 60.0)
           (-90.0 90.0)
           (-90.0 90.0)
  end
  begin
     id 26 
     name rradius
     direction -1 -4.48961e-011 1.05248e-026   
     length 3.81645   
     axis 180 30 90   XYZ
    dof rx
    limits (-10.0 170.0)
  end
  begin
     id 27 
     name rwrist
     direction -1 -4.48979e-011 1.92422e-026   
     length 1.90822   
     axis -1.18182e-014 -90 -90   XYZ
    dof ry
    limits (-180.0 0.0)
  end
  begin
     id 28
     name rhand
     direction -1 -4.48937e-011 3.84844e-026   
     length 0.646185   
     axis -2.45563e-014 -90 -90   XYZ
    dof rx rz
    limits (-90.0 90.0)
           (-45.0 45.0)
  end
  begin
     id 29
     name rfingers
     direction -1 -4.48953e-011 7.69687e-026   
     length 0.520971   
     axis -4.91126e-014 -90 -90   XYZ
    dof rx
    limits (0.0 90.0)
  end
  begin
     id 30
     name rthumb
     direction -0.707107 -6.3494e-011 0.707107   
     length 0.748013   
     axis -90 -45 -2.85299e-015   XYZ
    dof rx rz
    limits (-45.0 45.0)
           (-45.0 45.0)
  end
:hierarchy
  begin
    root lhipjoint rhipjoint lowerback
    lhipjoint lfemur
    lfemur ltibia
    ltibia lfoot
    lfoot ltoes
    rhipjoint rfemur
    rfemur rtibia
    rtibia rfoot
    rfoot rtoes
    lowerback upperback
    upperback thorax
    thorax lowerneck lclavicle rclavicle
    lowerneck upperneck
    upperneck head
    lclavicle lhumerus
    lhumerus lradius
    lradius lwrist
    lwrist lhand lthumb
    lhand lfingers
    rclavicle rhumerus
    rhumerus rradius
    rradius rwrist
    rwrist rhand rthumb
    rhand rfingers
  end

#!OML:ASF H:\HAZMAT1\Patient Classification 1\Patient 3\Session 1\dancer.ASF
:FULLY-SPECIFIED
:DEGREES
178
upperback -5.713110 -6.525730 3.634510
rfoot -30.457100 -8.894580
lradius 19.196301
lthumb 6.610940 -308.130005
rradius 24.854099
lwrist -28.627899
rhand -26.256100 -36.638901
rhumerus -63.241798 -19.988701 -1.809790
lowerneck -0.715751 11.538700 5.840010
lhand -19.719200 381.993011
ltibia 68.428001
head -4.661230 7.627620 -1.900260
rwrist 2.963820
lfingers 7.125020
rtoes 9.268410
lowerback -5.917020 -4.942650 5.199420
rfingers 7.125020
lclavicle 0.000000 0.000000
upperneck -17.630301 15.992900 -1.450680
rfemur -3.605590 21.124001 21.247700
thorax -2.781110 -3.291800 0.655335
rclavicle 0.000000 0.000000
rtibia 40.483898
lfoot 13.719800 7.604260
lhumerus 77.370003 33.569401 40.028198
rthumb 0.298371 653.382019
root 40.110802 18.043600 24.694401 -896.466980 -249.843994 187.785995
ltoes -0.352272
lfemur -23.413500 -1.103150 -18.212200
179
upperback -5.524680 -6.559420 3.719370
rfoot -30.628300 -8.895360
lradius 19.193199
lthumb 5.905750 -307.946014
rradius 24.996599
lwrist -29.141001
rhand -26.153799 -36.628201
rhumerus -63.170399 -20.161501 -1.703740
lowerneck -0.563358 11.485600 5.117130
lhand -20.449600 382.156006
ltibia 68.279701
head -5.060620 7.645810 -1.861390
rwrist 3.396300
lfingers 7.125020
rtoes 9.016510
lowerback -5.709360 -4.967940 5.194860
rfingers 7.125020
lclavicle -0.000000 -0.000000
upperneck -18.659100 15.993000 -1.452720
rfemur -3.685450 20.783001 21.045799
thorax -2.689270 -3.305670 0.750870
rclavicle -0.000000 -0.000000
rtibia 40.435799
lfoot 13.788800 7.935120
lhumerus 77.656700 34.590401 40.357601
rthumb 0.397176 653.392029
root 40.112900 18.050600 24.763300 -895.465027 -250.074997 188.654007
ltoes -0.393592
lfemur -23.509199 -1.715400 -18.422600
180
upperback -5.460890 -6.482700 3.900930
rfoot -30.339500 -8.964390
lradius 19.257799
lthumb 5.858040 -308.002991
rradius 24.965401
lwrist -29.030100
rhand -25.394100 -36.479401
rhumerus -63.475399 -20.406799 -1.785280
lowerneck -0.537996 11.624900 5.993890
lhand -20.499001 382.097992
ltibia 68.087303
head -4.934210 7.696140 -2.192450
rwrist 4.226300
lfingers 7.125020
rtoes 8.495690
lowerback -5.786630 -4.894320 5.755810
rfingers 7.125020
lclavicle 0.000000 0.000000
upperneck -18.672701 16.107700 -2.173900
rfemur -3.934050 21.118700 21.614901
thorax -2.624440 -3.277380 0.625096
rclavicle 0.000000 0.000000
rtibia 40.047699
lfoot 13.545700 8.167290
lhumerus 77.571999 35.052898 40.010201
rthumb 1.130990 653.544006
root 40.155102 18.074200 24.886600 -895.945984 -249.675995 187.559998
ltoes -0.536667
lfemur -23.660299 -1.560240 -17.744301
181
upperback -5.460420 -6.258140 3.868420
rfoot -30.144800 -9.188480
lradius 19.274099
lthumb 5.960220 -308.118011
rradius 24.923401
lwrist -29.152100
rhand -25.439800 -36.401199
rhumerus -63.922100 -20.449301 -2.060550
lowerneck -0.280887 11.964400 5.514660
lhand -20.393200 381.985992
ltibia 67.871399
head -5.270960 7.960760 -2.123240
rwrist 4.387360
lfingers 7.125020
rtoes 8.026410
lowerback -5.675430 -4.730410 5.678110
rfingers 7.125020
lclavicle -0.000000 -0.000000
upperneck -19.472500 16.673401 -1.915130
rfemur -4.268290 21.742001 21.876900
thorax -2.672460 -3.166210 0.648511
rclavicle -0.000000 -0.000000
rtibia 39.957401
lfoot 13.705800 8.869670
lhumerus 78.051399 35.400700 40.353401
rthumb 1.086800 653.622009
root 40.181801 18.093800 25.015900 -895.599976 -248.936005 187.462997
ltoes 0.312866
lfemur -23.733900 -2.094220 -17.621300
182
upperback -5.592430 -6.208130 3.831050
rfoot -29.960800 -9.109030
lradius 19.377399
lthumb 5.959890 -308.112000
rradius 24.935200
lwrist -29.239599
rhand -25.383400 -36.409599
rhumerus -64.311699 -20.523500 -2.297310
lowerneck -0.359020 11.956300 6.360660
lhand -20.393499 381.992004
ltibia 67.591400
head -5.033400 7.904320 -2.403680
rwrist 4.438070
lfingers 7.125020
rtoes 8.075400
lowerback -5.670950 -4.700850 5.661540
rfingers 7.125020
lclavicle -0.000000 -0.000000
upperneck -19.157200 16.554501 -2.583710
rfemur -4.156350 21.825001 22.284000
thorax -2.813990 -3.144570 0.629382
rclavicle -0.000000 -0.000000
rtibia 39.362999
lfoot 13.498100 9.374240
lhumerus 77.820000 35.585800 40.387699
rthumb 1.141300 653.614014
root 40.175201 18.120399 25.134899 -895.697998 -248.707001 187.106995
ltoes 0.539298
lfemur -23.670200 -2.337240 -17.253300
183
upperback -5.750900 -6.125420 3.692720
rfoot -29.928400 -9.790270
lradius 19.466000
lthumb 6.025890 -308.102997
rradius 24.953800
lwrist -28.945801
rhand -25.412399 -36.409000
rhumerus -64.339203 -20.284100 -2.445890
lowerneck 0.104228 11.882600 6.301680
lhand -20.325199 382.002014
ltibia 67.214302
head -5.105740 7.868100 -2.382540
rwrist 4.301870
lfingers 7.125020
rtoes 7.724900
lowerback -5.911130 -4.639020 5.344690
rfingers 7.125020
lclavicle -0.000000 0.000000
upperneck -19.084700 16.500200 -2.435910
rfemur -4.197440 22.270399 22.418800
thorax -2.822490 -3.097440 0.648378
rclavicle -0.000000 0.000000
rtibia 39.187599
lfoot 13.472600 9.559180
lhumerus 77.462502 35.327099 40.035801
rthumb 1.113250 653.614014
root 40.155602 18.141899 25.214199 -894.919006 -248.774994 187.720993
ltoes 0.249903
lfemur -23.673800 -2.949650 -17.277201
184
upperback -5.869020 -6.223120 3.525180
rfoot -30.094299 -10.024200
lradius 19.455099
lthumb 5.512000 -308.062012
rradius 24.955900
lwrist -28.779400
rhand -25.290899 -36.487202
rhumerus -64.010902 -19.845800 -2.633550
lowerneck 0.230675 11.755900 5.913200
lhand -20.857401 382.028992
ltibia 66.824699
head -5.157290 7.803150 -2.208530
rwrist 4.014040
lfingers 7.125020
rtoes 7.484120
lowerback -6.265110 -4.702030 5.189810
rfingers 7.125020
lclavicle -0.000000 0.000000
upperneck -18.948000 16.374599 -2.011640
rfemur -4.010800 21.994400 22.128700
thorax -2.753500 -3.144150 0.533504
rclavicle -0.000000 0.000000
rtibia 39.036598
lfoot 13.382700 9.531020
lhumerus 77.375099 34.808300 39.880001
rthumb 1.230580 653.536987
root 40.150299 18.153200 25.257200 -893.674988 -249.104996 189.033005
ltoes -0.906328
lfemur -23.478500 -3.278670 -17.575001
185
upperback -5.855020 -6.031310 3.519880
rfoot -29.979300 -10.294200
lradius 19.879499
lthumb 4.921290 -307.989014
rradius 24.756100
lwrist -27.381201
rhand -25.062000 -36.268501
rhumerus -63.833000 -19.423901 -2.558450
lowerneck 0.159913 11.619300 5.502400
lhand -21.469200 382.088013
ltibia 66.814201
head -5.095890 7.733460 -1.985620
rwrist 3.807610
lfingers 7.125020
rtoes 7.333190
lowerback -6.312150 -4.542370 5.721960
rfingers 7.125020
lclavicle -0.000000 -0.000000
upperneck -18.531099 16.216200 -1.527680
rfemur -4.394720 21.993000 22.466801
thorax -2.768170 -3.064420 0.241087
rclavicle -0.000000 -0.000000
rtibia 38.765301
lfoot 13.155500 9.657510
lhumerus 76.999901 34.347801 38.521801
rthumb 1.451700 653.757019
root 40.114201 18.170300 25.278601 -894.119995 -249.388000 188.143997
ltoes -1.095100
lfemur -24.020500 -3.347860 -17.038200
186
upperback -5.647820 -5.911520 3.309140
rfoot -30.071400 -10.439400
lradius 19.916500
lthumb 4.704670 -308.032990
rradius 24.991800
lwrist -27.653700
rhand -25.247101 -36.344700
rhumerus -62.689301 -19.232000 -3.206950
lowerneck -0.011454 11.527500 5.858940
lhand -21.693600 382.039001
ltibia 66.514198
head -4.884470 7.657980 -2.015640
rwrist 3.463200
lfingers 7.125020
rtoes 6.943640
lowerback -5.934230 -4.459270 5.414270
rfingers 7.125020
lclavicle -0.000000 0.000000
upperneck -18.035601 16.054800 -1.599250
rfemur -4.502390 21.834600 21.950701
thorax -2.742890 -3.002210 0.214629
rclavicle -0.000000 0.000000
rtibia 38.606899
lfoot 13.053300 9.863460
lhumerus 77.677597 34.077301 39.171700
rthumb 1.272930 653.679016
root 40.110100 18.188299 25.273199 -892.870972 -249.574997 189.292007
ltoes -1.557780
lfemur -24.082300 -3.873830 -17.516500
187
upperback -5.533360 -5.748970 3.210390
rfoot -30.086599 -10.814600
lradius 20.398600
lthumb 4.391430 -308.299011
rradius 25.222500
lwrist -27.474400
rhand -25.439301 -36.428600
rhumerus -62.240200 -19.286699 -3.762730
lowerneck -0.112269 11.490100 5.715820
lhand -22.018000 381.765991
ltibia 66.411003
head -4.876740 7.648680 -1.926420
rwrist 3.313180
lfingers 7.125020
rtoes 6.489210
lowerback -5.782010 -4.331430 5.568290
rfingers 7.125020
lclavicle 0.000000 0.000000
upperneck -17.965099 16.028400 -1.391390
rfemur -4.797100 21.788200 22.009199
thorax -2.727990 -2.928500 0.039961
rclavicle 0.000000 0.000000
rtibia 38.229801
lfoot 12.774800 9.704080
lhumerus 77.550301 34.195499 38.818100
rthumb 1.087260 653.593994
root 40.159199 18.204201 25.277800 -892.783020 -249.923004 188.753006
ltoes -2.601440
lfemur -24.541300 -4.070430 -17.217899
188
upperback -5.219010 -5.724810 2.979690
rfoot -30.035601 -11.475000
lradius 21.591400
lthumb 3.966310 -309.390015
rradius 26.494499
lwrist -29.120600
rhand -24.981600 -35.968700
rhumerus -63.399799 -20.387100 -4.769730
lowerneck -1.289660 10.991100 5.221390
lhand -22.458200 380.666992
ltibia 66.350800
head -5.030230 7.337120 -1.599350
rwrist 3.055710
lfingers 7.125020
rtoes 5.759030
lowerback -5.563220 -4.295900 5.662930
rfingers 7.125020
lclavicle -0.000000 0.000000
upperneck -16.927500 15.357100 -0.511847
rfemur -5.056100 21.831100 22.447100
thorax -2.552840 -2.922700 -0.246730
rclavicle -0.000000 0.000000
rtibia 37.782700
lfoot 12.351300 9.331080
lhumerus 79.959801 34.424900 42.069599
rthumb 1.529300 654.057007
root 40.245499 18.217199 25.320101 -893.077026 -250.423004 187.610001
ltoes -4.049050
lfemur -25.084200 -3.910160 -16.541901
189
upperback -4.480940 -6.140530 2.247610
rfoot -28.694401 -12.111400
lradius 37.097401
lthumb 4.631690 -311.209015
rradius 29.231400
lwrist -23.937300
rhand -14.711800 -23.524200
rhumerus -65.452301 -19.604900 -15.392500
lowerneck -0.356241 10.303900 5.017340
lhand -21.769100 378.862000
ltibia 65.275002
head -4.760330 6.907430 -1.130830
rwrist 1.393300
lfingers 7.125020
rtoes 4.899400
lowerback -5.806220 -4.537290 5.556680
rfingers 7.125020
lclavicle -0.000000 0.000000
upperneck -15.340000 14.525100 0.763376
rfemur -4.720500 21.577999 24.155800
thorax -1.735450 -3.127060 -1.010170
rclavicle -0.000000 0.000000
rtibia 36.033798
lfoot 12.042200 8.309820
lhumerus 70.007301 32.210201 35.586399
rthumb 11.442700 666.807983
root 40.292999 18.292801 25.466700 -895.885986 -250.927994 183.854996
ltoes -7.895610
lfemur -25.043501 -3.487360 -14.366300
